<?xml version="1.0" encoding="UTF-8"?>
<svg viewBox="0 0 320 240" xmlns="http://www.w3.org/2000/svg">
 <g transform="matrix(.48353 0 0 .59883 -18.672 -249.31)">
  <path d="m575.3 541.85c-47.408 35.633-58.312 128.44-10.366 171.04 41.408 7.798 88.002-51.251 103.29-81.56 10.072-27.567 5.4521-60.37-7.0914-80.209-48.417-50.562-43.437-36.721-85.836-9.2665z" fill="#fece69" fill-rule="evenodd"/>
  <path d="m359.79 770.98c-27.501 0.99158-62.668-7.1236-71.803-36.887-6.3818-34.509 24.009-60.82 46.707-82.104 32.912-29.094 37.516-39.817-15.469-48.249-41.855 4.5948-66.596 43.27-100.4 63.729-33.222 22.427-79.391 39.093-117.09 17.855-33.321-23.147-31.051-73.681-7.0069-103.18 35.667-50.718 96.657-71.714 153.3-90.563 102.1-30.215 210.54-32.461 312.74-1.2533 44.265 14.885 92.979 36.24 111.52 81.674 13.705 45.512-15.568 91.78-51.239 118.2-55.906 42.925-125.53 63.864-194.19 75.321-22.196 3.3373-44.616 5.2428-67.064 5.4572zm234.02-70.082c38.036-21.259 78.226-54.409 80.877-100.94-1.2994-26.294-14.556-64.891-44.969-68.563-41.328 1.1286-69.295 39.57-82.966 74.841-11.577 32.032-10.472 71.646 12.997 98.197 10.309 9.7036 25.475 3.9267 34.061-3.5394zm-209.99-148.28c-53.108 22.68-25.991 34.162 12.597 32.072 26.548-6.2516 52.211-27.869-12.597-32.072z" fill="#fcc44d"/>
  <path d="m359.79 772.34c-25.683-0.49697-57.873-4.6548-69.864-30.854-8.8806-21.706 2.0372-44.07 16.216-60.523 16.456-18.709 35.897-34.753 51.527-54.142-3.7338-25.734-43.521-24.191-62.669-16.184-35.522 22.117-63.625 55.149-102.17 72.915-23.724 13.002-52.191 15.005-78.22 10.004-14.974-7.365-29.59-17.522-34.04-34.683-4.2744-11.18-6.2868-22.673-3.3555-34.416 3.9688-38.023 34.651-66.583 64.469-87.243 77.077-49.87 170.29-68.517 260.98-71.41 72.142-0.25643 147.27 8.9792 211.09 44.748 29.833 17.662 59.466 44.973 62.443 81.6 1.6722 13.492-5.1181 26.913-7.0614 40.242-16.818 37.444-49.624 64.629-85.156 83.633-43.526 24.147-92.045 38.436-140.65 48.276-27.685 3.3901-55.541 9.8899-83.54 8.0376zm52.081-6.4504c57.035-6.7825 113.17-23.134 164.66-48.56 26.514-14.411 53.343-31.309 71.584-55.444-19.695 17.889-40.385 34.677-64.39 46.539-46.402 24.065-97.275 39.242-148.7 48.169-43.67 5.5211-113.16 12.093-132.95-7.893-17.736-21.078-9.0498 4.5732 16.652 15.088 29.955 9.2554 62.54 7.1235 93.137 2.1009zm4.593-9.4539c56.369-6.966 111.96-22.913 162.83-48.213 37.249-20.117 75.839-47.025 90.124-88.76 2.863-11.807 6.6881-23.665 2.4558-35.628-6.9722-41.438-46.375-66.88-81.894-82.89-84.913-35.352-180.14-37.893-270.14-24.854-72.91 12.137-148.07 34.457-204.26 84.65-15.328 13.541-27.029 31.566-33.878 50.568-1.0873 14.949-6.8739 30.564 1.4389 44.552 5.6671 13.42 18.999 23.611 32.871 26.781 30.54 5.5662 62.933-0.30538 88.68-18.027 30.376-17.828 56.051-42.641 84.382-63.171 22.255-9.1887 52.789-11.301 69.997 8.5034 6.2665 10.012 2.7374 16.752-6.2601 26.48-23.301 24.955-54.281 46.272-63.047 80.906-2.1838 27.634 28.32 40.924 51.582 42.001 25.065 2.0863 50.279 0.89346 75.126-2.8993zm-41.373-169.91c-32.746-5.3121-29.853-29.611 2.985-39.469 16.626-5.4662 53.033-2.3319 46.846 22.113-10.498 16.068-30.161 17.862-49.83 17.357zm21.326-2.7771c26.304-2.5339 33.354-27.793 3.0972-29.233-15.425-3.8593-62.088 15.801-32.225 28.485 9.945 2.2767 19.526 2.3432 29.127 0.74856zm27.189-22.594c-11.876-20.606-43.155-16.252-59.6-4.7673-10.077 6.2693-10.586 16.928 0.29839 4.5342 19.809-14.475 46.154-10.177 59.302 0.23319zm-264.32 130.72c51.624-9.8241 88.493-50.748 128.99-80.759 21.076-12.219 50.537-13.678 69.718 5.7778 7.0507 8.3807-5.6279-13.201-15.834-15.998-22.721-7.1355-49.429-3.4651-66.624 14.242-39.632 30.72-79.42 69.692-132.41 72.528-13.488-1.8012-28.729 0.93263-40.165-7.9557-22.661-12.252 4.604 10.473 14.478 11.453 13.938 1.0646 28.027 4.4096 41.842 0.71154z"/>
  <g transform="translate(204.72 340.78)" fill="#f00" fill-rule="evenodd" stroke="#000">
   <path d="m356 210.95c-10.396 8.9292 2.4686 20.671 7.7925 24.57-2.5056 4.9909-4.9609 9.227-2.0547 14.997 10.964 0.53915 9.4804-9.1847 6.6435-15.566-1.985-7.1539-2.0492-24.168-12.381-24.001z"/>
   <path d="m332.61 259.89c8.6251-2.1996 2.6515-14.751 13.648-14.198 8.7698-1.3474 8.6302 9.5413 9.3711 11.56 7.494 0.73216 5.8549 15.607 15.052 12.952 5.4917-2.0676 10.446-0.59116 9.6136 7.3954 15.226-4.1446 24.194-2.3227 35.623 7.3017 5.9706 2.4595 7.3472 10.945 0.32205 7.9244-7.6337-1.7078-14.509-6.7078-22.583-6.3403 8.8455 1.9388 22.083 4.0344 25.93 13.439 3.268 8.7546-9.1315 15.652-16.853 12.106-6.19-1.3749-13.797-10.341-17.676-9.9835 8.4283 5.3173 21.164 12.182 28.11 19.32 3.6731 6.9687-18.179 1.2307-33.864 4.8993-6.3125-2.6155-15.937-5.3918-22.08-0.00174-2.6858 2.1641-4.2938 16.777-7.7017 11.793-1.0433-12.183 0.33056-24.557 0.02358-39.614-1.7861 4.0354-1.4382 27.336-1.2117 39.461-1.9578 9.5828-11.327 14.066-20.342 13.463-5.1799-1.4424-10.238-12.751-13.852-3.6038-7.2323 4.6229-19.387-1.1209-17.939-10.363-1.4583-9.8726 28.512-33.502 20.441-25.6-8.453 8.0778-18.883 18.994-27.614 26.73-9.7374 3.9795-9.7272-9.8647-1.5759-12.691 6.8154-6.052 14.515-11.452 22.648-21.085-14.103 12.281-30.693 35.109-41.384 12.227-6.0352-11.994 6.0917-14.528-0.84111-19.15-3.334-6.847-2.306-17.831 3.408-22.598 2.6554-1.7359 14.142-3.3079 4.7351-3.9955-5.4589-0.69931-15.693-4.9636-10.166-11.657 9.2836-3.8679 27.869 5.0865 26.942 4.6018 9.3979-0.51322-23.256-7.0643-24.815-7.2738-5.9601-11.74 25.783 3.1422 32.161 2.9501-11.317-3.9428-21.082-7.5332-31.701-8.8699-6.9577-3.2965 1.3414-9.246 6.1875-6.5998 14.685 3.9603 28.938 9.5284 43.853 12.682-0.50913-1.9244-8.2921-7.9165-1.17-5.1865 12.404 5.3967 7.659 4.399 15.3 8.0067z"/>
  </g>
  <g transform="translate(204.72 340.78)">
   <path d="m341.91 148.88c-4.6778 0.22868-7.0912 1.5198-10.444 5.3207-13.07-0.52265-45.509 11.138-33.472 28.269 11.035 2.6144 26.397 13.009 26.014 21.37 5.095 5.1152 33.675 9.3341 34.371 1.1794-0.18847-7.2162-3.214-12.825-2.5238-18.72-0.63449-5.743-2.9734-10.1 8.854-8.4864 4.2397-0.0859 7.1686 0.5544 5.6368-9.8747-6.0937-0.3351-9.5202-20.392-28.437-19.057z" fill="#00a900" fill-rule="evenodd" stroke="#000"/>
   <path d="m336.5 156.72c1.4053 0.58572 0.54106 1.128 1.1625 2.6508-2.885-1.7761-2.2132-1.5447-4.7008-1.8474 0.81831-0.59453 2.6813-1.1606 3.5383-0.80339z"/>
   <path d="m346.78 170.71c2.0357-2.3515 3.378-0.78426 6.2657-0.37306-1.4973 2.0575-3.9587 0.54349-6.2657 0.37306z"/>
  </g>
  <path d="m449.58 480.14c-1.9877 2.4702-5.578 2.1353-8.3344 3.1109-11.771 4.1466-15.536 10.147-9.8407 18.37 10.052 4.5729 21.285 10.122 32.679 9.056 2.6366-0.62773 4.7752-2.3803 6.6868-4.1944 5.6616-3.8837 13.185-2.3846 18.999-5.8408 2.4587-1.6386 4.7493-4.2955 4.7972-7.3676-4.4086-3.9025-14.633-9.9611-20.199-12.936-5.0582-1.8766-11.229 3.7795-16.281 2.3472-2.0792-7.7278-5.592-15.539-8.507-2.5449z" fill="#fff" fill-rule="evenodd"/>
  <path d="m435.94 505.37c-3.6505-2.7751-7.4728-5.1654-8.7376-10.026 0.29838-6.0072 7.0778-10.677 13.662-13.737 3.6896 0.46936 8.5482-1.0734 8.6878-5.4262 0.69418-3.3181 6.0432-5.5691 7.156-1.3384 0.5475 2.9612 1.0273 7.6496 5.1105 7.3087 4.1548 0.08636 7.3557-3.9573 11.562-3.2008 7.6196 5.5872 13.809 9.1351 23.232 12.38 0.0333 5.8783-5.2486 11.886-10.018 13.23-4.7997 1.0407-10.053-0.80505-14.592 1.4681-2.8709 2.1857-4.2049 6.5495-8.1792 7.1019-9.5334-0.59259-18.392-5.5821-27.884-7.7594zm29.098-9.275c-1.7557-4.6151 7.2735-3.2196 4.7021 0.70581-0.86276 10.757 5.6846 5.6228 9.4288 5.1157 9.299 2.3036 18.496-6.1713 12.977-10.375-14.849-4.0006-14.836-12.056-22.33-10.411-3.3172 1.6176-7.4228 3.0942-11.111 2.3013-3.4466 0.44252-7.2117-0.25605-10.975-0.68093-5.4682-0.27416-7.4497 1.0219-12.521 4.0011-3.2867 1.2534-8.8169 7.6387-4.2888 12.56 3.5979 7.0672 8.0315-5.386 7.9672-0.29789-2.8535 7.4666 1.8515 5.4721 5.9111 6.9062 14.46 7.4822 32.558 7.1025 20.241-9.825zm-10.583-20.894c-3.2014-4.7814-6.5618 7.8699-0.34123 6.7311 5.4895 1.4266 1.5125-5.8757 0.34123-6.7311z"/>
  <path d="m353.94 537.83c-10.107-1.2448-16.222-9.6231-24.708-13.609-3.599-1.2546-10.303 1.0231-10.793 3.6675-0.54575 2.9399-2.1228 4.5019-4.5285 4.4853-13.793-1.1593-21.246-8.9629-12.81-22.216 5.0542-4.6636 12.463-9.0579 18.072-10.718 4.4004-1.3028 5.6802-2.1398 5.9334-3.8807 0.17753-1.2208 1.4127-2.9337 2.7448-3.8066 2.1103-1.3827 3.663-1.4406 12.064-0.44985 8.1418 1.6024 16.059 2.5243 24.368 2.6306 14.892 0.05299 21.133 1.76 27.065 7.4027 2.9277 2.785 3.9349 4.5362 3.9349 6.8413 0 3.6309-3.0006 6.2115-7.2225 6.2115-3.3484 0-3.3588 0.09372-0.55083 4.9727 2.1773 3.7831 2.1853 3.9146 0.36272 5.9286l-19.686 5.4414 0.59661 8.1574c-5.0009 0.46966-9.9424-0.00993-14.843-1.0584z" fill="#b500ae" stroke="#000"/>
  <g transform="translate(208.46 342.92)" fill="none" stroke="#000">
   <path d="m176.78 172.54c-6.332-5.01-17.025-10.049-23.075-10.049"/>
   <path d="m160.41 188.54c-1.3208-6.6692-13.687-17.12-14.143-17.12"/>
   <path d="m89.577 178.54c-1.6937-1.567 1.1376-7.4093 14.701-10.793"/>
   <path d="m96.018 187.07c1.5838-7.7695 8.4504-10.507 9.1217-11.179"/>
   <path d="m114.49 155.54c1.2309-1.2309 13.71-7.035 23.402 4.3472"/>
  </g>
  <path d="m227.12 525.55c-7.7822 0.74863-3.3551-12.554-13.128-7.7587-6.0051 2.6024-19.798 4.9744-17.418 14.211 4.9895 7.6427 7.8834 5.0532-0.15282 16.143-4.9064 33.428 25.254-3.6737 30.161-10.536-11.584 11.021-16.122 19.134-13.357 23.544 1.822 2.9056 9.3626-1.3312 12.861 1.3199 6.0085 4.4162 14.99 5.9323 22.369 3.8423 8.3192-2.2112 4.7615-10.372-0.41922-17.857 0.38306 0.42206 7.0558 12.583 9.6348 13.525 6.9142 2.5598 17.664-0.33573 18.979-8.4929-0.07744-10.401-18.077-12.582-28.921-16.015 7.4643-1.0061 14.531 7.5496 20.485 0.94067 4.5895-3.7979 15.669-14.494 3.5359-17.727-7.0903-2.382-13.343 5.2585-19.385-1.6654-4.9929-4.7714-16.81-2.8006-19.541 1.4661-1.0466 2.6872-2.3729 5.8519-5.7041 5.0607z" fill="#fafe00" fill-rule="evenodd" stroke="#000"/>
  <g transform="translate(205.85 341.46)" fill="none" stroke="#000">
   <path d="m28.875 224.87c-0.25259-0.18944-3.7918-16.033 1.3027-21.536"/>
   <path d="m70.018 187.74c-8.474 5.0092-12.164-5.7561-21.468 0.47479"/>
  </g>
  <path d="m168.52 588.16c-3.5888-5.254-4.468-6.697-30.119 3.6318-7.3602 5.5446-26.363 17.023-23.35 28.134 6.2787 6.8386 17.422 13.241 9.3815 30.922-0.26744 11.364 10.735 8.5812 19.667 11.598 9.0084-0.13002 19.705 3.643 22.477-11.226-1.4711-6.3686-2.2273-20.491 3.4018-21.712 6.2489 7.2706 17.691-7.4905 17.579-13.405 7.1051-6.7756 20.294 3.6548 25.299-6.3452-3.6627-11.945 3.4131-16.218 1.4009-23.539s-14.277-12.381-14.277-12.381c-12.473-0.29302-19.309 1.4408-31.461 14.324z" fill-rule="evenodd" stroke="#000"/>
 </g>
</svg>
